<mxfile host="app.diagrams.net" modified="2023-11-20T03:07:14.802Z" agent="Mozilla/5.0 (Windows NT 10.0; Win64; x64; rv:109.0) Gecko/20100101 Firefox/119.0" etag="bC6GkKQm0wYh8dpysSxh" version="22.1.3" type="github">
  <diagram id="C5RBs43oDa-KdzZeNtuy" name="Page-1">
    <mxGraphModel dx="1050" dy="538" grid="1" gridSize="10" guides="1" tooltips="1" connect="1" arrows="1" fold="1" page="1" pageScale="1" pageWidth="827" pageHeight="1169" math="0" shadow="0">
      <root>
        <mxCell id="WIyWlLk6GJQsqaUBKTNV-0" />
        <mxCell id="WIyWlLk6GJQsqaUBKTNV-1" parent="WIyWlLk6GJQsqaUBKTNV-0" />
        <mxCell id="MXQ4mZra0QHAsnDOhIH1-0" value="Start Program" style="ellipse;whiteSpace=wrap;html=1;" vertex="1" parent="WIyWlLk6GJQsqaUBKTNV-1">
          <mxGeometry x="354" y="20" width="120" height="80" as="geometry" />
        </mxCell>
        <mxCell id="MXQ4mZra0QHAsnDOhIH1-1" value="" style="endArrow=classic;html=1;rounded=0;exitX=0.5;exitY=1;exitDx=0;exitDy=0;" edge="1" parent="WIyWlLk6GJQsqaUBKTNV-1" source="MXQ4mZra0QHAsnDOhIH1-2">
          <mxGeometry width="50" height="50" relative="1" as="geometry">
            <mxPoint x="390" y="300" as="sourcePoint" />
            <mxPoint x="414" y="170" as="targetPoint" />
          </mxGeometry>
        </mxCell>
        <mxCell id="MXQ4mZra0QHAsnDOhIH1-3" value="" style="endArrow=classic;html=1;rounded=0;exitX=0.5;exitY=1;exitDx=0;exitDy=0;" edge="1" parent="WIyWlLk6GJQsqaUBKTNV-1" source="MXQ4mZra0QHAsnDOhIH1-0" target="MXQ4mZra0QHAsnDOhIH1-2">
          <mxGeometry width="50" height="50" relative="1" as="geometry">
            <mxPoint x="414" y="100" as="sourcePoint" />
            <mxPoint x="414" y="170" as="targetPoint" />
          </mxGeometry>
        </mxCell>
        <mxCell id="MXQ4mZra0QHAsnDOhIH1-2" value="Timer begins counting down from 60" style="rounded=0;whiteSpace=wrap;html=1;" vertex="1" parent="WIyWlLk6GJQsqaUBKTNV-1">
          <mxGeometry x="354" y="130" width="120" height="60" as="geometry" />
        </mxCell>
        <mxCell id="MXQ4mZra0QHAsnDOhIH1-22" style="edgeStyle=orthogonalEdgeStyle;rounded=0;orthogonalLoop=1;jettySize=auto;html=1;exitX=0.5;exitY=1;exitDx=0;exitDy=0;entryX=0.5;entryY=0;entryDx=0;entryDy=0;" edge="1" parent="WIyWlLk6GJQsqaUBKTNV-1" source="MXQ4mZra0QHAsnDOhIH1-4" target="MXQ4mZra0QHAsnDOhIH1-6">
          <mxGeometry relative="1" as="geometry" />
        </mxCell>
        <mxCell id="MXQ4mZra0QHAsnDOhIH1-4" value="Ball is hit toward player" style="rounded=0;whiteSpace=wrap;html=1;" vertex="1" parent="WIyWlLk6GJQsqaUBKTNV-1">
          <mxGeometry x="354" y="220" width="120" height="50" as="geometry" />
        </mxCell>
        <mxCell id="MXQ4mZra0QHAsnDOhIH1-5" value="" style="endArrow=classic;html=1;rounded=0;exitX=0.5;exitY=1;exitDx=0;exitDy=0;entryX=0.5;entryY=0;entryDx=0;entryDy=0;" edge="1" parent="WIyWlLk6GJQsqaUBKTNV-1" source="MXQ4mZra0QHAsnDOhIH1-2" target="MXQ4mZra0QHAsnDOhIH1-4">
          <mxGeometry width="50" height="50" relative="1" as="geometry">
            <mxPoint x="390" y="240" as="sourcePoint" />
            <mxPoint x="440" y="190" as="targetPoint" />
          </mxGeometry>
        </mxCell>
        <mxCell id="MXQ4mZra0QHAsnDOhIH1-19" value="&lt;b&gt;&lt;font style=&quot;font-size: 14px;&quot;&gt;HIT&lt;/font&gt;&lt;/b&gt;" style="edgeStyle=orthogonalEdgeStyle;rounded=0;orthogonalLoop=1;jettySize=auto;html=1;" edge="1" parent="WIyWlLk6GJQsqaUBKTNV-1" source="MXQ4mZra0QHAsnDOhIH1-6" target="MXQ4mZra0QHAsnDOhIH1-18">
          <mxGeometry relative="1" as="geometry" />
        </mxCell>
        <mxCell id="MXQ4mZra0QHAsnDOhIH1-6" value="Player hits ball" style="rhombus;whiteSpace=wrap;html=1;" vertex="1" parent="WIyWlLk6GJQsqaUBKTNV-1">
          <mxGeometry x="361" y="310" width="106" height="80" as="geometry" />
        </mxCell>
        <mxCell id="MXQ4mZra0QHAsnDOhIH1-8" value="&lt;p style=&quot;line-height: 220%;&quot;&gt;&lt;b&gt;&lt;font style=&quot;font-size: 15px;&quot;&gt;Miss&lt;/font&gt;&lt;/b&gt;&lt;/p&gt;" style="endArrow=classic;html=1;rounded=0;exitX=1;exitY=0.5;exitDx=0;exitDy=0;edgeStyle=orthogonalEdgeStyle;entryX=0.5;entryY=0;entryDx=0;entryDy=0;" edge="1" parent="WIyWlLk6GJQsqaUBKTNV-1" source="MXQ4mZra0QHAsnDOhIH1-6" target="MXQ4mZra0QHAsnDOhIH1-10">
          <mxGeometry x="0.0055" width="50" height="50" relative="1" as="geometry">
            <mxPoint x="371" y="360" as="sourcePoint" />
            <mxPoint x="570" y="420" as="targetPoint" />
            <Array as="points">
              <mxPoint x="570" y="350" />
            </Array>
            <mxPoint as="offset" />
          </mxGeometry>
        </mxCell>
        <mxCell id="MXQ4mZra0QHAsnDOhIH1-10" value="Restart?" style="rhombus;whiteSpace=wrap;html=1;" vertex="1" parent="WIyWlLk6GJQsqaUBKTNV-1">
          <mxGeometry x="530" y="430" width="80" height="80" as="geometry" />
        </mxCell>
        <mxCell id="MXQ4mZra0QHAsnDOhIH1-11" value="&lt;b&gt;&lt;font style=&quot;font-size: 15px;&quot;&gt;NO&lt;/font&gt;&lt;/b&gt;" style="endArrow=classic;html=1;rounded=0;exitX=0;exitY=0.5;exitDx=0;exitDy=0;edgeStyle=orthogonalEdgeStyle;entryX=1;entryY=0.5;entryDx=0;entryDy=0;" edge="1" parent="WIyWlLk6GJQsqaUBKTNV-1" source="MXQ4mZra0QHAsnDOhIH1-10" target="MXQ4mZra0QHAsnDOhIH1-13">
          <mxGeometry width="50" height="50" relative="1" as="geometry">
            <mxPoint x="450" y="490" as="sourcePoint" />
            <mxPoint x="460" y="470" as="targetPoint" />
          </mxGeometry>
        </mxCell>
        <mxCell id="MXQ4mZra0QHAsnDOhIH1-12" value="&lt;b&gt;&lt;font style=&quot;font-size: 14px;&quot;&gt;YES&lt;/font&gt;&lt;/b&gt;" style="endArrow=classic;html=1;rounded=0;exitX=1;exitY=0.5;exitDx=0;exitDy=0;edgeStyle=orthogonalEdgeStyle;entryX=1;entryY=0.5;entryDx=0;entryDy=0;" edge="1" parent="WIyWlLk6GJQsqaUBKTNV-1" source="MXQ4mZra0QHAsnDOhIH1-10" target="MXQ4mZra0QHAsnDOhIH1-2">
          <mxGeometry x="-0.7505" width="50" height="50" relative="1" as="geometry">
            <mxPoint x="646" y="485" as="sourcePoint" />
            <mxPoint x="510" y="160" as="targetPoint" />
            <Array as="points">
              <mxPoint x="610" y="480" />
              <mxPoint x="656" y="480" />
              <mxPoint x="656" y="160" />
            </Array>
            <mxPoint as="offset" />
          </mxGeometry>
        </mxCell>
        <mxCell id="MXQ4mZra0QHAsnDOhIH1-13" value="Quit Program" style="ellipse;whiteSpace=wrap;html=1;" vertex="1" parent="WIyWlLk6GJQsqaUBKTNV-1">
          <mxGeometry x="347" y="760" width="120" height="80" as="geometry" />
        </mxCell>
        <mxCell id="MXQ4mZra0QHAsnDOhIH1-21" style="edgeStyle=orthogonalEdgeStyle;rounded=0;orthogonalLoop=1;jettySize=auto;html=1;exitX=0.5;exitY=0;exitDx=0;exitDy=0;entryX=0;entryY=0.5;entryDx=0;entryDy=0;" edge="1" parent="WIyWlLk6GJQsqaUBKTNV-1" source="MXQ4mZra0QHAsnDOhIH1-18" target="MXQ4mZra0QHAsnDOhIH1-4">
          <mxGeometry relative="1" as="geometry" />
        </mxCell>
        <mxCell id="MXQ4mZra0QHAsnDOhIH1-24" value="" style="edgeStyle=orthogonalEdgeStyle;rounded=0;orthogonalLoop=1;jettySize=auto;html=1;" edge="1" parent="WIyWlLk6GJQsqaUBKTNV-1" source="MXQ4mZra0QHAsnDOhIH1-18" target="MXQ4mZra0QHAsnDOhIH1-23">
          <mxGeometry relative="1" as="geometry" />
        </mxCell>
        <mxCell id="MXQ4mZra0QHAsnDOhIH1-18" value="Ball bounces back, one point is gained" style="whiteSpace=wrap;html=1;" vertex="1" parent="WIyWlLk6GJQsqaUBKTNV-1">
          <mxGeometry x="168" y="320" width="120" height="60" as="geometry" />
        </mxCell>
        <mxCell id="MXQ4mZra0QHAsnDOhIH1-26" value="" style="edgeStyle=orthogonalEdgeStyle;rounded=0;orthogonalLoop=1;jettySize=auto;html=1;" edge="1" parent="WIyWlLk6GJQsqaUBKTNV-1" source="MXQ4mZra0QHAsnDOhIH1-23" target="MXQ4mZra0QHAsnDOhIH1-25">
          <mxGeometry relative="1" as="geometry" />
        </mxCell>
        <mxCell id="MXQ4mZra0QHAsnDOhIH1-23" value="Timer hits 0" style="whiteSpace=wrap;html=1;" vertex="1" parent="WIyWlLk6GJQsqaUBKTNV-1">
          <mxGeometry x="168" y="430" width="120" height="60" as="geometry" />
        </mxCell>
        <mxCell id="MXQ4mZra0QHAsnDOhIH1-28" style="edgeStyle=orthogonalEdgeStyle;rounded=0;orthogonalLoop=1;jettySize=auto;html=1;exitX=0.5;exitY=1;exitDx=0;exitDy=0;entryX=0.5;entryY=0;entryDx=0;entryDy=0;" edge="1" parent="WIyWlLk6GJQsqaUBKTNV-1" source="MXQ4mZra0QHAsnDOhIH1-25" target="MXQ4mZra0QHAsnDOhIH1-27">
          <mxGeometry relative="1" as="geometry" />
        </mxCell>
        <mxCell id="MXQ4mZra0QHAsnDOhIH1-25" value="&quot;You Win!&quot; and Display score" style="whiteSpace=wrap;html=1;" vertex="1" parent="WIyWlLk6GJQsqaUBKTNV-1">
          <mxGeometry x="168" y="520" width="120" height="60" as="geometry" />
        </mxCell>
        <mxCell id="MXQ4mZra0QHAsnDOhIH1-29" value="&lt;b&gt;&lt;font style=&quot;font-size: 14px;&quot;&gt;NO&lt;/font&gt;&lt;/b&gt;" style="edgeStyle=orthogonalEdgeStyle;rounded=0;orthogonalLoop=1;jettySize=auto;html=1;exitX=1;exitY=0.5;exitDx=0;exitDy=0;entryX=0;entryY=0.5;entryDx=0;entryDy=0;" edge="1" parent="WIyWlLk6GJQsqaUBKTNV-1" source="MXQ4mZra0QHAsnDOhIH1-27" target="MXQ4mZra0QHAsnDOhIH1-13">
          <mxGeometry x="-0.6393" y="3" relative="1" as="geometry">
            <mxPoint x="3" y="3" as="offset" />
          </mxGeometry>
        </mxCell>
        <mxCell id="MXQ4mZra0QHAsnDOhIH1-30" value="&lt;b&gt;&lt;font style=&quot;font-size: 14px;&quot;&gt;YES&lt;/font&gt;&lt;/b&gt;" style="edgeStyle=orthogonalEdgeStyle;rounded=0;orthogonalLoop=1;jettySize=auto;html=1;exitX=0;exitY=0.5;exitDx=0;exitDy=0;entryX=0;entryY=0.5;entryDx=0;entryDy=0;" edge="1" parent="WIyWlLk6GJQsqaUBKTNV-1" source="MXQ4mZra0QHAsnDOhIH1-27" target="MXQ4mZra0QHAsnDOhIH1-2">
          <mxGeometry x="-0.874" relative="1" as="geometry">
            <Array as="points">
              <mxPoint x="140" y="660" />
              <mxPoint x="140" y="160" />
            </Array>
            <mxPoint as="offset" />
          </mxGeometry>
        </mxCell>
        <mxCell id="MXQ4mZra0QHAsnDOhIH1-27" value="Restart?" style="rhombus;whiteSpace=wrap;html=1;" vertex="1" parent="WIyWlLk6GJQsqaUBKTNV-1">
          <mxGeometry x="188" y="620" width="80" height="80" as="geometry" />
        </mxCell>
      </root>
    </mxGraphModel>
  </diagram>
</mxfile>
